inDegrees=no
num_controls=7
num_derivatives=13
num_iterations=76
num_multipliers=7
num_parameters=0
num_slacks=7
num_states=26
objective=0.334218
objective_accelerations=0.036762
objective_balance=0.001215
objective_effort=0.027501
objective_height=0.267077
objective_ligament=0.001663
solver_duration=789.370295
status=Solve_Succeeded
success=true
DataType=double
version=3
OpenSimVersion=4.5
endheader
time	/jointset/ground_pelvis/pelvis_tilt/value	/jointset/ground_pelvis/pelvis_tx/value	/jointset/ground_pelvis/pelvis_ty/value	/jointset/hip_r/hip_flexion_r/value	/jointset/hip_r/hip_adduction_r/value	/jointset/hip_r/hip_rotation_r/value	/jointset/back/lumbar_extension/value	/jointset/patellofemoral_r/patellar_flexion_r/value	/jointset/knee_r/knee_flexion_r/value	/jointset/knee_r/knee_adduction_r/value	/jointset/knee_r/knee_rotation_r/value	/jointset/ankle_r/ankle_angle_r/value	/jointset/subtalar_r/subtalar_angle_r/value	/jointset/ground_pelvis/pelvis_tilt/speed	/jointset/ground_pelvis/pelvis_tx/speed	/jointset/ground_pelvis/pelvis_ty/speed	/jointset/hip_r/hip_flexion_r/speed	/jointset/hip_r/hip_adduction_r/speed	/jointset/hip_r/hip_rotation_r/speed	/jointset/back/lumbar_extension/speed	/jointset/patellofemoral_r/patellar_flexion_r/speed	/jointset/knee_r/knee_flexion_r/speed	/jointset/knee_r/knee_adduction_r/speed	/jointset/knee_r/knee_rotation_r/speed	/jointset/ankle_r/ankle_angle_r/speed	/jointset/subtalar_r/subtalar_angle_r/speed	/forceset/tau_hip_flexion_r	/forceset/tau_hip_adduction_r	/forceset/tau_hip_rotation_r	/forceset/tau_knee_flexion_r	/forceset/tau_ankle_angle_r	/forceset/tau_subtalar_angle_r	/forceset/tau_lumbar_extension	lambda_cid13_p0	lambda_cid14_p0	lambda_cid14_p1	lambda_cid14_p2	lambda_cid14_p3	lambda_cid14_p4	lambda_cid14_p5	/jointset/ground_pelvis/pelvis_tilt/accel	/jointset/ground_pelvis/pelvis_tx/accel	/jointset/ground_pelvis/pelvis_ty/accel	/jointset/hip_r/hip_flexion_r/accel	/jointset/hip_r/hip_adduction_r/accel	/jointset/hip_r/hip_rotation_r/accel	/jointset/back/lumbar_extension/accel	/jointset/patellofemoral_r/patellar_flexion_r/accel	/jointset/knee_r/knee_flexion_r/accel	/jointset/knee_r/knee_adduction_r/accel	/jointset/knee_r/knee_rotation_r/accel	/jointset/ankle_r/ankle_angle_r/accel	/jointset/subtalar_r/subtalar_angle_r/accel	gamma_cid13_p0	gamma_cid14_p0	gamma_cid14_p1	gamma_cid14_p2	gamma_cid14_p3	gamma_cid14_p4	gamma_cid14_p5
1	-0.2839770447395856	-0.006520064151014731	0.6331521602875468	1.468815499051321	-0.2463816709759172	0.02368545677566896	-0.785394519342326	1.51332035586722	1.513320355867226	-0.04951568756109277	0.174420674917139	0.4362281660654314	0.15779421878771	0.07503426723318513	0.006199175578240999	0.0156435312122131	-0.1060224673166396	-0.001806447157426959	-0.004689700304465174	8.233140737643641e-05	-0.01556784792377775	-0.01556784792377799	0.001744770152770087	8.0260611621343e-05	0.01534942624558172	0.00415044097441374	-0.3666124010934832	0.04064193978511524	0.0245928523264079	-0.434361799820217	-0.05223481367313258	-0.01041997315731703	0.375765663367997	-0.0406524613772335	-69.52877217087661	-20.13679616091352	7.558647196240534	8.89209995707796	-772.8882293079005	54.11167417922434	1.481817993765745	0.1681362049991506	1.855011185043723	-5.70368575802244	0.02834493698154998	-0.9567330000360492	0.01348605543684703	-5.046225801621699	-5.0462258016217	0.6103352237394419	-0.006233397967900483	-1.069242512486322	-0.4407521498249448	8.838279867544485e-10	-2.009792793680526e-10	-6.4444687051666e-10	7.380408446617003e-09	2.884715574766633e-10	-5.06839659424948e-09	-2.500089461565211e-09
1.01	-0.2831534086827929	-0.006449553418260362	0.6334011928162112	1.467470979944032	-0.2463981797213219	0.02359146694784698	-0.7853909932561559	1.512912668242606	1.512912668242615	-0.04946727152445837	0.1744206975783293	0.4363284138849168	0.1578140258153102	0.08968481878348797	0.007918370024423043	0.03416108553425492	-0.1628882196119954	-0.001495340753018876	-0.01411234846817812	0.0007440036456044895	-0.06596505261034123	-0.06596505261034179	0.00793177892220547	-7.847347684943295e-05	0.004721612043631979	-0.000178673090674297	-0.3671599013425999	0.04070192901515732	0.02460043644641845	-0.4342387556150015	-0.05256870223564034	-0.01037049842977618	0.376568297928589	-0.04064911856480602	-69.65344004847883	-20.13018864400405	7.549656309751626	8.762437324154696	-773.3394439781282	54.12708316019999	1.455455223730916	0.1761211478031019	1.849842339546769	-5.679049691869554	0.03249087037495241	-0.9356428477373598	0.110675483051287	-5.035774606617364	-5.035774606617483	0.6218855128322321	-0.02110070311307079	-1.0563303541311	-0.4274324227871444	2.299438552993796e-09	-4.271877117505129e-10	1.29322622266535e-08	1.799549804507485e-08	1.119858534389787e-09	-9.298647516549429e-09	1.838951845704349e-08
1.02	-0.2821835108128787	-0.006361388724369456	0.6338353438448482	1.465557597368468	-0.246411577927045	0.02340312821376057	-0.7853772169126945	1.512001147210238	1.51200114721025	-0.04935718503826104	0.1744190514408798	0.4363230276661196	0.1577908534246726	0.1042866298565104	0.009729967805548549	0.05266723120676617	-0.2197951609704568	-0.001184339220437504	-0.02355948155982302	0.002132382885247213	-0.1163345294746526	-0.1163345294746534	0.01407886006310681	-0.0002534991183756638	-0.005777381361590454	-0.004445442673219661	-0.367707401591753	0.04076191824521581	0.02460802056629774	-0.4341157114097942	-0.05290259079813402	-0.01032102370219441	0.3773709324891505	-0.04065137187084508	-69.78550209907014	-20.12159789022737	7.536604970102709	8.635022244490084	-773.9244724532711	54.15192001967215	1.4720698983097	0.1866168719878264	1.852729455137607	-5.711923570643561	0.02832396261621778	-0.9616299856224293	0.1588274557200358	-5.040680237171278	-5.04068023717126	0.6023496980326307	-0.00949170857901022	-1.043478353140885	-0.4282832533164043	2.943995948962552e-09	1.096769360736667e-09	2.900011957168757e-08	2.522733019515493e-08	-2.694713470454494e-09	-1.112304592830505e-08	3.995410712575669e-08
1.03	-0.2810686908104467	-0.006254678620622961	0.6344543187102034	1.463076104538331	-0.2464219007606953	0.02312028998108886	-0.7853448098356507	1.510586133942124	1.51058613394213	-0.04918569057287307	0.1744157144879714	0.4362130231893485	0.1577251381728656	0.1185814031682316	0.01162425791538575	0.07110748330080145	-0.2763909202573864	-0.0008835797290517855	-0.03300390787454099	0.00458483096019502	-0.1666570567929915	-0.1666570567929929	0.020225866960422	-0.000402542996515846	-0.01622936771704085	-0.008705789149633901	-0.3681006899243272	0.04081493765637013	0.02461525644483828	-0.4336325746657355	-0.05337113209678966	-0.01023998206624492	0.3781381869832244	-0.04066939163518013	-69.93846589408136	-20.09239276475677	7.50819992047051	8.558058666000756	-774.2153586301216	54.16177863991792	1.393786423699566	0.1926644912160495	1.836631706502644	-5.616529070330684	0.03045430523705574	-0.9352109655342923	0.3238232491379494	-5.02637959596337	-5.026379595963539	0.6217538436840242	-0.01589879292970112	-1.046938246815188	-0.4261265048686741	3.580685455438747e-09	2.638585264906201e-09	4.509339679680189e-08	3.242463931004745e-08	-6.556693220010612e-09	-1.292289482464693e-08	6.152558335314442e-08
1.04	-0.2798138019996714	-0.006128659733631531	0.6352570878204921	1.460032028722811	-0.2464293155268658	0.02274313508305075	-0.7852808043247104	1.508668227277467	1.508668227277458	-0.04895255050687438	0.1744112294831891	0.4359983229550153	0.1576165762242819	0.1323003915237896	0.01359172445453566	0.08942608019345825	-0.3323117580488439	-0.0006027257241789294	-0.04242281463476558	0.008452069665365901	-0.216913208783258	-0.2169132087832601	0.02640798018185971	-0.0004831094945820991	-0.02671653287521655	-0.01301478202863943	-0.3684939782568782	0.04086795706753735	0.02462249232323161	-0.4331494379216858	-0.05383967339544302	-0.0101589404302664	0.3789054414773232	-0.04069311622947487	-70.09888100640076	-20.06121194374409	7.47573282537366	8.482155483359437	-774.6414984125124	54.18150313511068	1.356912907077157	0.2012521578502714	1.828398414861902	-5.576939271549094	0.02434286531367207	-0.9565260747237316	0.4417855817647138	-5.027405171556834	-5.027405171556827	0.6093709628571319	0.004203767435753879	-1.050514113686126	-0.4380125338347005	5.058281233633587e-09	3.249630386823525e-09	5.761096881351604e-08	4.333758146886996e-08	-7.443635328170888e-09	-1.659804607636296e-08	8.161096834288826e-08
1.05	-0.2784238944615955	-0.005982571010343122	0.6362424707344244	1.45643140358401	-0.2464340047866513	0.02227201892609337	-0.7851720302842239	1.506248108943509	1.506248108943515	-0.04865735088761518	0.1744062218471965	0.4356786042656837	0.157464735629684	0.1456524462115881	0.01564103448459365	0.1076334872130794	-0.3877687169289555	-0.0003357407854348833	-0.05178910557569782	0.01344503427448142	-0.2670980981078301	-0.2670980981078334	0.03263969263575495	-0.0005149990431972402	-0.03723034813771906	-0.01735402275016977	-0.3684492905386481	0.04091607522219267	0.02464147466397525	-0.4324530204150335	-0.05414644840078415	-0.01007934784161114	0.3792740014778307	-0.04072260156368181	-70.17867320931479	-20.01310936723887	7.436644905483836	8.394775272374252	-774.6363733658418	54.18437095358439	1.320052239061692	0.2090209119870804	1.814355434418676	-5.523390613637332	0.02779263902047955	-0.9249839117294293	0.5493962769962164	-5.012178155530854	-5.012178155531062	0.6312370827679381	-0.006356519589658429	-1.052288966413911	-0.4319650489249763	6.562155332819631e-09	3.831588921795474e-09	7.001680004246769e-08	5.436663716031525e-08	-8.23760751003756e-09	-2.033180052668443e-08	1.016499129814557e-07
1.06	-0.2769013262787489	-0.005815539089473677	0.6374094164363342	1.452277545572948	-0.246436040930876	0.02170757919814136	-0.7850090577223429	1.503326512247781	1.503326512247786	-0.04829960100457826	0.1744010010750049	0.4352536526769527	0.1572694855863487	0.1588325204765974	0.01778036397074314	0.1257386377889343	-0.4429583325048762	-7.210261206600126e-05	-0.0610875288346832	0.01929177394403718	-0.3172088811373411	-0.3172088811373454	0.03891803293413942	-0.0005257367349918264	-0.04776311275548834	-0.02169667177621298	-0.3684046028203453	0.04096419337685894	0.02466045700459948	-0.4317566029083877	-0.05445322340613248	-0.009999755252935751	0.3796425614784093	-0.04075813493619421	-70.26601628192947	-19.9629647743872	7.3933887103416	8.307724581388493	-774.7683919134913	54.19833858047708	1.322516822519425	0.2192560490684763	1.807947126108665	-5.523470610710875	0.02367351223866413	-0.9429525383343377	0.6125405938528065	-5.012583912544622	-5.012583912544621	0.6186965317549737	0.008434138799848074	-1.054303984739659	-0.4386941947373152	8.43816434924304e-09	5.219052419801747e-09	8.45022780057521e-08	6.925464758044394e-08	-1.033394849810723e-08	-2.292739958839691e-08	1.264025094954318e-07
